<?xml version="1.0" encoding="UTF-8"?><svg id="Layer_2" xmlns="http://www.w3.org/2000/svg" viewBox="0 0 131.82 105.77"><defs><style>.cls-1{fill:#18341a;}.cls-2{fill:#6d6e71;}.cls-3{fill:#59af95;}</style></defs><g id="Layer_2-2"><g><path class="cls-3" d="M24.83,71.09l-1.7-1.61-9.79-9.18c-1.48-1.59-2.71-4.34-3-6.49-.7-5.21,1.9-20.12,1.9-20.12,.04-3.33-1.89-6.74-2.28-7.46L2.47,8.31c-.32-.59-1.44-3.06-.8-2.86,14.41,4.51,46.37,27.63,54.46,39.85,.4,.6,1.05,2.37,1.28,3.3,.02,.08,.03,.15,.04,.23l.71,10.08v.23l-.08,3.71c.29,1.03-3.41,2.44-4.34,2.97-3.86,2.18-14.32,7.43-25.54,7.5-1.11,0-2.26-1.33-3.37-2.23Z"/><path class="cls-1" d="M24.2,71.81c-3.43-3.6-7.37-6.71-10.96-10.14-3.34-2.95-4.49-7.63-4.14-11.93,.25-5.48,1-10.86,1.84-16.26,.06-1.26-1.11-4.92-2.26-6.7L1.1,8.88l.07,.14c-.27-.52-.45-.93-.65-1.41C.24,6.8-.15,6.18,.06,5.15c.16-.67,.89-1.26,1.62-1.19,.71,.11,.36,.07,.72,.17,.69,.25,1.39,.45,2.05,.74,12.17,5.07,22.97,12.85,33.36,20.83,5.88,4.68,11.55,9.61,16.49,15.32,1.22,1.53,2.59,3.03,3.34,4.87,.33,.79,.59,1.65,.81,2.48,.12,.41,.16,2.86,.22,3.31,.04,.96,.34,6.1,.38,6.97,.07,1.07-.13,3.18-.13,4.24,.29,1.42-2.89,2.78-4.51,3.54-1.15,.6-2.36,1.3-3.54,1.85-7.01,3.42-14.66,5.7-22.49,5.95-1.74,.09-2.97-1.48-4.16-2.41h0Zm1.26-1.43c.83,.67,1.54,1.51,2.41,1.96,.25,.15,.48,.07,.76,.08,8.61-.1,16.99-3.13,24.5-7.19,1.34-.78,3.04-1.25,4.15-2.33,.06-.08-.03-.02,.02,.18l-.03-.24,.02-2.77c.09-.8-.1-1.94-.14-2.73-.16-1.87-.57-6.51-.73-8.31-.19-.93-.65-2-1.07-2.87C45.87,33,18.53,13.92,3.37,7.64c-.67-.28-1.36-.5-2.04-.73-.01-.02-.27-.05,.22,.02,.61,.05,1.24-.43,1.37-.99,.06-.26,.03-.29,.04-.33,.17,.65,.56,1.52,.88,2.14l7.39,17.97c1.07,1.84,2.4,5.24,2.33,8.01-.88,5.33-1.79,10.73-2.11,16.13-.35,3.86,.44,7.68,3.3,10.32,3.6,3.32,7,7.05,10.71,10.21h0Z"/></g><g><path class="cls-3" d="M90.54,58.07s-13.95-3.27-31.72,.49"/><path class="cls-1" d="M58.81,60.06c-.69,0-1.32-.48-1.47-1.19-.17-.81,.35-1.61,1.16-1.78,17.9-3.79,31.79-.62,32.38-.49,.81,.19,1.31,1,1.12,1.8-.19,.81-.99,1.31-1.8,1.12-.14-.03-13.86-3.14-31.07,.5-.1,.02-.21,.03-.31,.03Z"/></g><g><path class="cls-3" d="M91.74,40.75c.06-.13,.12-.26,.11-.4-.01-.19-.15-.34-.28-.47-.36-.39-.7-.8-.96-1.27-.28-.49-.39-1.05-.62-1.56-.25-.58-.54-1.14-.85-1.7-.74-1.33-1.57-2.61-2.44-3.86-1.02-1.47-2.11-2.89-3.22-4.29-1.21-1.52-2.45-3.02-3.71-4.49s-2.6-2.99-3.93-4.46-2.57-2.82-3.88-4.21c-1.17-1.25-4.36-4.49-5.55-5.72-.97-1.01-1.96-2.01-2.94-3.01-.68-.69-1.37-1.38-2.06-2.06-.3-.3-.6-.59-.92-.9-.46-.56-1.73-1.86-1.44,.47,.52,4.32-.96,11.35-1.84,18.9-.34,2.93-1.54,14.93-2.75,18.63l-.05,.16-.09,.25c-.16,.48-.25,.76-.25,.76l.37,.57s2.32,4.14,2.73,5.66c.81,2.97,.99,12.28,.99,12.28,0,0,11.38-1.72,15.2-1.74,4.28-.02,17.02,1.77,17.02,1.77l-3.1-9.54,1.71-3.76c.91-2,1.81-4.02,2.75-6.01Z"/><path class="cls-1" d="M90.97,40.39c.06-.11,.04-.13,.03,0,0,.15,.07,.21,.03,.16-.57-.64-1.13-1.27-1.45-2.13l-.28-.75c-2.5-5.27-6.67-9.7-10.42-14.13-6.23-6.92-12.85-13.56-19.45-20.11-.14-.14-.28-.34-.42-.46-.07-.09-.23-.14,.01-.05,.28,.14,.83,0,1.1-.23,.36-.34,.33-.5,.35-.53,.54,6.24-1.17,12.61-1.97,18.76-.98,6.17-1.67,15-3.65,20.87l-.09-.73c.2,.3,.5,.79,.65,1.09,.96,1.88,2.03,3.58,2.61,5.67,.77,4.05,.78,8.13,.93,12.2l-.93-.79c2.68-.39,5.36-.76,8.06-1.08,5.4-.88,10.94-.64,16.34,.1,2.69,.31,5.38,.65,8.06,1.01l-.89,1.06-3.11-9.54c-.07-.2-.05-.42,.03-.6l4.44-9.78h0Zm1.54,.72l-4.47,9.75,.03-.6,3.08,9.55c.14,.43-.1,.89-.52,1.03-8.12-.8-16.16-2.6-24.35-1.11-2.67,.33-5.35,.71-8.01,1.11-.44,.07-.86-.24-.93-.68-.17-3.98-.19-8.05-.94-11.95-.49-1.76-1.61-3.59-2.47-5.25-.24-.57-.92-1.12-.69-1.71,2.03-6.66,2.09-13.71,2.85-20.63,.47-6.05,1.96-12.02,1.42-18.04-.01-.3-.04-.58,.06-1.08,.07-.24,.12-.62,.64-1.1,.43-.41,1.25-.49,1.72-.31,.97,.4,1.12,.72,1.68,1.31,3.82,3.82,8.89,8.96,12.91,13.45,5.51,6.29,11.2,12.65,15.34,19.98,.38,.74,.75,1.45,1.04,2.25,.17,.65,.44,1.28,.91,1.82l.53,.6c.12,.15,.33,.45,.33,.86,0,.4-.14,.62-.19,.74h0Z"/></g><g><path class="cls-3" d="M108.8,7.17c3.58,6.23,17.62,32.21,20.65,39.24,.15,.34,.23,.69,.25,1.06,.06,1.05-.07,3.32-1.59,6.4-1.98,4.01-7.69,10.72-9.23,12.85-.82,1.14-19.84-.29-25.67-1.71-.8-.2-1.47-.74-1.82-1.49-1.02-2.19-3.33-7.18-4.78-10.65-2.51-6,9.12-18.57,13.04-23.8,3.41-4.56,6.51-16.71,7.54-21.04,.13-.56,1.33-1.36,1.61-.86Z"/><path class="cls-1" d="M110.04,6.46c7.3,12.75,14.09,25.71,20.31,39.03,2.13,5.41-2.8,11.62-5.87,15.7-1.62,2.1-3.32,4.15-4.95,6.23-.58,.5-.89,.4-1.44,.53-3.85,.28-7.67-.09-11.45-.34-4.63-.43-9.28-.79-13.84-1.86-1.56-.44-2.19-1.89-2.77-3.24-.68-1.43-2.45-5.36-3.13-6.86l-1-2.31c-1.6-4.41,1.42-8.79,3.54-12.41,2.73-4.27,5.98-8.12,9.02-12.12,2.79-3.96,4.06-8.82,5.46-13.47,.65-2.32,1.29-4.87,1.83-7.23l.07-.3s.14-.52,.26-.68c.8-1.36,2.89-2.3,3.98-.67h0Zm-2.47,1.42c.23,.45,.83,.64,1.13,.53,.03-.02-.06,.03-.12,.07-.06,.04-.12,.12-.08,.06-.35,1.62-1.39,5.29-2.08,7.52-1.59,4.84-3.06,9.92-6.19,14.1-3.67,4.93-14.92,16.32-12.78,22.51,1.39,3.24,3.28,7.57,4.8,10.74,.47,.77,1.31,.87,2.16,1.04,4.07,.74,8.21,1.11,12.35,1.43,3.85,.19,7.76,.67,11.53,.12,.05,0,.08-.07-.11,.1-.02,.02-.05,.06-.06,.08,1.55-2.11,3.19-4.12,4.73-6.22,2.75-3.87,5.92-7.79,5.66-12.62-.02-.23-.24-.66-.34-.88-5.68-11.82-14.33-26.87-20.59-38.57h0Z"/></g><g><path class="cls-1" d="M22.01,97.35c0,5.36-2.21,8.42-7.68,8.42-5.07,0-6.63-2.84-6.94-5.12h2.95c.49,1.83,1.96,2.81,4.12,2.81,3.8,0,4.74-2.41,4.74-6.26v-1.35c-.89,1.88-2.43,2.94-5.23,2.94-4.12,0-6.93-3.36-6.93-8.26,0-5.46,3.18-8.79,7.23-8.79,3.19,0,4.55,1.5,4.93,2.61,.03-.76,.1-1.87,.13-2.22h2.73c-.01,.97-.05,3.23-.05,4.83v10.4Zm-11.97-6.96c0,3.53,1.83,5.92,4.57,5.92,3.61,0,4.67-2.42,4.67-6.14s-.99-5.99-4.57-5.99c-3.09,0-4.67,2.59-4.67,6.21Z"/><path class="cls-1" d="M26.94,86.67c0-2.34-.02-3.66-.03-4.55h2.83c.04,.47,.09,1.78,.09,3.42,.88-2.26,2.87-3.73,5.64-3.81v2.88c-3.43,.1-5.64,1.89-5.64,6.13v8.13h-2.89v-12.19Z"/><path class="cls-1" d="M50.46,95.21c0,1.52,.13,3.17,.23,3.65h-2.77c-.13-.37-.23-1.17-.27-2.19-.58,1.12-1.92,2.59-5.17,2.59-3.95,0-5.63-2.57-5.63-5.11,0-3.74,2.93-5.44,7.91-5.44h2.85v-1.43c0-1.47-.47-3.28-3.6-3.28-2.8,0-3.27,1.39-3.57,2.69h-2.8c.22-2.31,1.65-4.97,6.46-4.96,4.09,.01,6.35,1.68,6.35,5.48v8Zm-2.82-4.51h-2.71c-3.34,0-5.12,.92-5.12,3.28,0,1.74,1.19,3.01,3.26,3.01,4.03,0,4.57-2.71,4.57-5.75v-.54Z"/><path class="cls-1" d="M58.32,96.79v8.65h-2.88v-19.23c0-1.36,0-2.78-.03-4.08h2.81c.07,.56,.1,1.57,.1,2.63,.91-1.69,2.6-3.03,5.47-3.03,3.87,0,6.68,3.24,6.68,8.33,0,5.98-3.23,9.19-7.28,9.19-2.71,0-4.12-1.14-4.87-2.46Zm9.18-6.62c0-3.55-1.61-5.98-4.47-5.98-3.47,0-4.84,2.19-4.84,6.26s1.12,6.36,4.62,6.36c3.06,0,4.69-2.52,4.69-6.64Z"/><path class="cls-1" d="M77.15,74.63v9.96c.85-1.47,2.38-2.86,5.22-2.86,2.68,0,5.64,1.47,5.64,6.45v10.68h-2.88v-10.2c0-2.85-1.21-4.43-3.64-4.43-3.01,0-4.34,1.99-4.34,5.48v9.15h-2.89v-24.23h2.89Z"/><path class="cls-2" d="M107.5,88.13h-11.42v8.13h12.54l-.39,2.61h-15.14v-22.96h14.95v2.61h-11.97v7.01h11.42v2.61Z"/><path class="cls-2" d="M112.01,86.67c0-2.34-.02-3.66-.03-4.55h2.83c.04,.47,.09,1.78,.09,3.42,.88-2.26,2.87-3.73,5.64-3.81v2.88c-3.43,.1-5.64,1.89-5.64,6.13v8.13h-2.89v-12.19Z"/><path class="cls-2" d="M123.29,86.67c0-2.34-.02-3.66-.03-4.55h2.83c.04,.47,.09,1.78,.09,3.42,.88-2.26,2.87-3.73,5.64-3.81v2.88c-3.43,.1-5.64,1.89-5.64,6.13v8.13h-2.89v-12.19Z"/></g></g></svg>