<?xml version="1.0" encoding="UTF-8"?><svg id="Layer_2" xmlns="http://www.w3.org/2000/svg" viewBox="0 0 436.75 314.56"><defs><style>.cls-1{fill:#f1f2f2;}.cls-2{fill:#18341a;}.cls-3{fill:#6d6e71;}.cls-4{fill:#59af95;}</style></defs><g id="Layer_2-2"><rect class="cls-1" width="436.75" height="314.56"/><g><g><path class="cls-4" d="M279.94,170.24s-34.87-8.18-79.3,1.23"/><path class="cls-2" d="M200.63,175.22c-1.73,0-3.29-1.21-3.66-2.97-.43-2.03,.87-4.02,2.89-4.45,44.74-9.48,79.48-1.56,80.94-1.22,2.01,.47,3.26,2.49,2.79,4.5-.47,2.02-2.47,3.28-4.5,2.8-.34-.08-34.65-7.86-77.67,1.25-.26,.06-.52,.08-.78,.08Z"/></g><g><g><path class="cls-4" d="M115.68,202.8l-4.24-4.02-24.48-22.96c-3.69-3.97-6.78-10.85-7.5-16.22-1.74-13.03,4.74-50.29,4.74-50.29,.1-8.32-4.73-16.85-5.71-18.65l-18.71-44.84c-.8-1.47-3.6-7.64-2-7.14,36.02,11.28,115.93,69.07,136.15,99.62,1,1.51,2.63,5.93,3.21,8.25,.05,.19,.08,.39,.09,.58l1.78,25.2,.02,.59-.22,9.29c.72,2.57-8.53,6.11-10.86,7.42-9.66,5.44-35.81,18.57-63.86,18.75-2.79,.02-5.64-3.33-8.42-5.59Z"/><path class="cls-2" d="M114.11,204.59c-8.58-9.01-18.42-16.77-27.4-25.36-8.34-7.36-11.23-19.08-10.36-29.82,.62-13.69,2.51-27.15,4.6-40.66,.15-3.16-2.79-12.29-5.65-16.75l-18.94-44.74,.16,.34c-.68-1.29-1.13-2.32-1.64-3.53-.69-2.01-1.66-3.56-1.15-6.13,.4-1.68,2.22-3.14,4.05-2.98,1.77,.27,.9,.19,1.81,.43,1.72,.63,3.48,1.13,5.12,1.84,30.43,12.67,57.42,32.13,83.4,52.06,14.69,11.71,28.87,24.02,41.22,38.3,3.05,3.82,6.48,7.57,8.35,12.17,.81,1.99,1.48,4.13,2.01,6.19,.3,1.03,.41,7.14,.54,8.27,.11,2.41,.84,15.26,.94,17.44,.17,2.66-.32,7.95-.33,10.61,.73,3.55-7.22,6.94-11.28,8.85-2.86,1.5-5.91,3.26-8.84,4.62-17.53,8.56-36.64,14.24-56.24,14.87-4.35,.22-7.43-3.69-10.4-6.02h0Zm3.14-3.58c2.07,1.68,3.84,3.77,6.02,4.9,.63,.38,1.19,.17,1.89,.21,21.52-.26,42.48-7.82,61.26-17.99,3.36-1.95,7.6-3.13,10.38-5.81,.16-.2-.08-.05,.05,.45l-.07-.6,.05-6.92c.22-2-.26-4.84-.36-6.82-.4-4.68-1.43-16.27-1.82-20.77-.47-2.32-1.62-5-2.67-7.17C168.28,107.57,99.92,59.88,62.03,44.16c-1.66-.7-3.41-1.25-5.1-1.84-.03-.06-.67-.12,.54,.05,1.52,.13,3.11-1.09,3.44-2.48,.15-.64,.09-.73,.1-.83,.43,1.62,1.41,3.81,2.19,5.34l18.49,44.93c2.69,4.59,6.01,13.11,5.82,20.02-2.19,13.34-4.48,26.83-5.28,40.32-.88,9.65,1.1,19.19,8.25,25.79,9.01,8.3,17.49,17.63,26.79,25.54h0Z"/></g><g><path class="cls-4" d="M282.95,126.94c.15-.31,.3-.64,.27-.99-.03-.46-.37-.84-.69-1.18-.9-.97-1.75-2.01-2.41-3.16-.7-1.24-.99-2.61-1.55-3.9-.63-1.45-1.35-2.86-2.12-4.24-1.84-3.34-3.93-6.53-6.11-9.65-2.56-3.66-5.27-7.22-8.04-10.73-3.02-3.81-6.12-7.54-9.28-11.23s-6.51-7.48-9.84-11.16c-3.2-3.54-6.43-7.04-9.7-10.52-2.93-3.12-10.89-11.22-13.87-14.3-2.44-2.52-4.89-5.02-7.35-7.51-1.71-1.73-3.42-3.44-5.15-5.15-.75-.74-1.5-1.48-2.3-2.26-1.15-1.41-4.31-4.65-3.61,1.16,1.31,10.8-2.41,28.37-4.6,47.24-.85,7.32-3.84,37.32-6.88,46.57l-.11,.4-.22,.62c-.4,1.21-.63,1.91-.63,1.91l.93,1.44s5.8,10.36,6.83,14.15c2.02,7.43,2.47,30.7,2.47,30.7,0,0,28.44-4.29,38.01-4.34,10.7-.06,42.56,4.42,42.56,4.42l-7.74-23.86c1.42-3.13,2.85-6.26,4.27-9.39,2.28-5.01,4.53-10.04,6.87-15.03Z"/><path class="cls-2" d="M281.03,126.04c.15-.27,.09-.33,.08,0,.02,.38,.18,.52,.08,.4-1.43-1.6-2.81-3.19-3.63-5.33l-.7-1.86c-6.25-13.18-16.66-24.25-26.05-35.34-15.58-17.29-32.12-33.91-48.62-50.29-.35-.36-.71-.84-1.04-1.14-.17-.21-.56-.36,.03-.11,.7,.35,2.08,0,2.75-.59,.9-.84,.81-1.25,.87-1.31,1.35,15.59-2.91,31.51-4.91,46.9-2.46,15.42-4.18,37.49-9.12,52.16l-.23-1.81c.5,.76,1.26,1.97,1.63,2.72,2.41,4.7,5.07,8.96,6.52,14.18,1.93,10.12,1.96,20.32,2.33,30.5l-2.34-1.97c6.71-.98,13.41-1.9,20.14-2.71,13.51-2.2,27.35-1.59,40.85,.25,6.73,.77,13.44,1.61,20.16,2.53l-2.22,2.64-7.78-23.85c-.17-.51-.12-1.05,.09-1.5l11.11-24.46h0Zm3.85,1.8l-11.17,24.38,.09-1.5,7.7,23.87c.35,1.07-.24,2.22-1.31,2.56-20.29-1.99-40.4-6.5-60.86-2.76-6.68,.83-13.37,1.77-20.02,2.76-1.11,.17-2.15-.6-2.32-1.71-.43-9.95-.47-20.14-2.34-29.86-1.23-4.4-4.03-8.98-6.17-13.13-.6-1.43-2.3-2.81-1.71-4.26,5.08-16.66,5.23-34.28,7.14-51.57,1.19-15.12,4.9-30.06,3.55-45.11-.03-.74-.11-1.44,.14-2.69,.18-.59,.29-1.55,1.61-2.75,1.08-1.03,3.13-1.23,4.3-.77,2.42,.99,2.81,1.81,4.21,3.28,9.54,9.54,22.23,22.41,32.28,33.61,13.78,15.73,28,31.64,38.34,49.95,.96,1.84,1.87,3.62,2.6,5.63,.43,1.63,1.1,3.2,2.27,4.56l1.32,1.49c.31,.39,.81,1.12,.84,2.16,0,.99-.34,1.55-.47,1.86h0Z"/></g><g><path class="cls-4" d="M325.61,42.98c8.96,15.57,44.05,80.53,51.63,98.11,.37,.85,.57,1.73,.62,2.65,.14,2.62-.17,8.29-3.99,16.01-4.96,10.03-19.22,26.81-23.06,32.12-2.06,2.84-49.61-.73-64.17-4.27-2.01-.49-3.67-1.85-4.54-3.73-2.56-5.48-8.33-17.96-11.95-26.63-6.27-15.01,22.81-46.43,32.59-59.51,8.54-11.41,16.28-41.77,18.85-52.59,.33-1.39,3.31-3.4,4.03-2.16Z"/><path class="cls-2" d="M328.7,41.21c18.25,31.88,35.23,64.28,50.77,97.57,5.33,13.52-7,29.05-14.67,39.25-4.06,5.25-8.3,10.38-12.37,15.57-1.44,1.26-2.23,1.01-3.6,1.32-9.64,.71-19.17-.23-28.63-.86-11.58-1.08-23.19-1.97-34.59-4.65-3.91-1.11-5.47-4.73-6.94-8.1-1.69-3.58-6.14-13.4-7.82-17.14l-2.51-5.78c-3.99-11.02,3.54-21.98,8.84-31.03,6.83-10.67,14.94-20.31,22.55-30.29,6.98-9.9,10.15-22.06,13.65-33.67,1.62-5.8,3.22-12.17,4.56-18.06l.17-.76s.35-1.3,.64-1.69c1.99-3.41,7.24-5.75,9.95-1.67h0Zm-6.18,3.56c.57,1.13,2.08,1.59,2.82,1.32,.07-.04-.16,.06-.3,.18-.15,.1-.31,.31-.21,.16-.88,4.05-3.48,13.23-5.19,18.81-3.97,12.09-7.65,24.81-15.47,35.25-9.18,12.33-37.31,40.79-31.94,56.26,3.48,8.1,8.19,18.93,12.01,26.85,1.17,1.93,3.27,2.18,5.41,2.59,10.18,1.85,20.53,2.77,30.87,3.58,9.62,.48,19.41,1.67,28.82,.29,.12,0,.19-.18-.28,.24-.06,.06-.13,.15-.16,.2,3.88-5.27,7.97-10.31,11.82-15.55,6.88-9.68,14.8-19.48,14.14-31.55-.05-.59-.61-1.66-.85-2.2-14.2-29.55-35.84-67.17-51.48-96.42h0Z"/></g></g><g><path class="cls-2" d="M108.63,268.45c0,13.41-5.53,21.04-19.19,21.04-12.69,0-16.58-7.1-17.34-12.79h7.36c1.22,4.58,4.9,7.01,10.29,7.01,9.5,0,11.86-6.03,11.86-15.66v-3.39c-2.23,4.69-6.07,7.34-13.08,7.34-10.3,0-17.31-8.39-17.31-20.66,0-13.66,7.95-21.97,18.07-21.97,7.98,0,11.37,3.76,12.33,6.53,.08-1.9,.25-4.67,.33-5.54h6.83c-.03,2.42-.14,8.06-.14,12.08v25.99Zm-29.92-17.4c0,8.83,4.58,14.81,11.42,14.81,9.03,0,11.67-6.06,11.67-15.35s-2.48-14.99-11.42-14.99c-7.74,0-11.67,6.47-11.67,15.53Z"/><path class="cls-2" d="M120.94,241.75c0-5.85-.05-9.14-.08-11.37h7.08c.11,1.17,.22,4.46,.22,8.54,2.19-5.66,7.18-9.32,14.09-9.53v7.2c-8.58,.26-14.09,4.74-14.09,15.31v20.31h-7.22v-30.47Z"/><path class="cls-2" d="M179.74,263.1c0,3.81,.33,7.92,.58,9.12h-6.91c-.33-.93-.58-2.92-.68-5.48-1.46,2.79-4.8,6.47-12.92,6.47-9.86,0-14.08-6.42-14.08-12.79,0-9.34,7.33-13.61,19.77-13.61h7.14v-3.57c0-3.69-1.18-8.19-9.01-8.19-6.99,0-8.17,3.47-8.93,6.73h-6.99c.55-5.77,4.12-12.43,16.15-12.4,10.22,.03,15.89,4.19,15.89,13.71v20Zm-7.05-11.27h-6.77c-8.34,0-12.81,2.31-12.81,8.2,0,4.35,2.98,7.52,8.14,7.52,10.08,0,11.43-6.79,11.43-14.38v-1.34Z"/><path class="cls-2" d="M199.41,267.05v21.61h-7.19v-48.08c0-3.41,0-6.95-.08-10.21h7.02c.17,1.39,.25,3.93,.25,6.58,2.27-4.22,6.51-7.57,13.67-7.57,9.68,0,16.71,8.11,16.71,20.84,0,14.94-8.07,22.98-18.2,22.98-6.76,0-10.3-2.84-12.18-6.16Zm22.94-16.54c0-8.87-4.04-14.94-11.18-14.94-8.67,0-12.09,5.48-12.09,15.65s2.81,15.89,11.55,15.89c7.65,0,11.73-6.3,11.73-16.6Z"/><path class="cls-2" d="M246.46,211.64v24.91c2.13-3.68,5.94-7.16,13.06-7.16,6.7,0,14.09,3.67,14.09,16.12v26.71h-7.19v-25.5c0-7.12-3.01-11.06-9.1-11.06-7.52,0-10.85,4.97-10.85,13.69v22.87h-7.22v-60.58h7.22Z"/><path class="cls-3" d="M322.34,245.39h-28.55v20.31h31.35l-.98,6.52h-37.84v-57.41h37.39v6.52h-29.92v17.53h28.55v6.52Z"/><path class="cls-3" d="M333.62,241.75c0-5.85-.05-9.14-.08-11.37h7.08c.11,1.17,.22,4.46,.22,8.54,2.19-5.66,7.18-9.32,14.09-9.53v7.2c-8.58,.26-14.09,4.74-14.09,15.31v20.31h-7.22v-30.47Z"/><path class="cls-3" d="M361.83,241.75c0-5.85-.05-9.14-.08-11.37h7.08c.11,1.17,.22,4.46,.22,8.54,2.19-5.66,7.18-9.32,14.09-9.53v7.2c-8.58,.26-14.09,4.74-14.09,15.31v20.31h-7.22v-30.47Z"/></g></g></g></svg>